<?xml version="1.0" encoding="utf-8" standalone="no"?>
<!DOCTYPE svg PUBLIC "-//W3C//DTD SVG 1.1//EN"
  "http://www.w3.org/Graphics/SVG/1.1/DTD/svg11.dtd">
<svg xmlns:xlink="http://www.w3.org/1999/xlink" width="448.609319pt" height="288.459286pt" viewBox="0 0 448.609319 288.459286" xmlns="http://www.w3.org/2000/svg" version="1.1">
 <metadata>
  <rdf:RDF xmlns:dc="http://purl.org/dc/elements/1.1/" xmlns:cc="http://creativecommons.org/ns#" xmlns:rdf="http://www.w3.org/1999/02/22-rdf-syntax-ns#">
   <cc:Work>
    <dc:type rdf:resource="http://purl.org/dc/dcmitype/StillImage"/>
    <dc:date>2025-04-01T21:27:05.930976</dc:date>
    <dc:format>image/svg+xml</dc:format>
    <dc:creator>
     <cc:Agent>
      <dc:title>Matplotlib v3.10.0, https://matplotlib.org/</dc:title>
     </cc:Agent>
    </dc:creator>
   </cc:Work>
  </rdf:RDF>
 </metadata>
 <defs>
  <style type="text/css">*{stroke-linejoin: round; stroke-linecap: butt}</style>
 </defs>
 <g id="figure_1">
  <g id="patch_1">
   <path d="M 0 288.459286 
L 448.609319 288.459286 
L 448.609319 0 
L 0 0 
z
" style="fill: #ffffff"/>
  </g>
  <g id="axes_1">
   <g id="patch_2">
    <path d="M 50.809319 262.018045 
L 441.409319 262.018045 
L 441.409319 22.166376 
L 50.809319 22.166376 
z
" style="fill: #ffffff"/>
   </g>
   <g id="matplotlib.axis_1">
    <g id="xtick_1">
     <g id="text_1">
      <!-- Corona-Pandemie -->
      <g style="fill: #262626" transform="translate(59.466809 279.128392) scale(0.11 -0.11)">
       <defs>
        <path id="CMSS17-43" d="M 3501 714 
C 3072 427 2874 344 2355 344 
C 1459 344 934 1303 934 2179 
C 934 3112 1472 4032 2381 4032 
C 2790 4032 3059 3918 3386 3715 
L 3475 4217 
C 3168 4370 2778 4440 2387 4440 
C 1158 4440 397 3316 397 2179 
C 397 927 1299 -64 2323 -64 
C 2874 -64 3066 -19 3539 280 
L 3501 714 
z
" transform="scale(0.015625)"/>
        <path id="CMSS17-6f" d="M 2829 1356 
C 2829 2176 2221 2816 1504 2816 
C 768 2816 173 2157 173 1356 
C 173 544 787 -64 1498 -64 
C 2227 -64 2829 563 2829 1356 
z
M 1504 337 
C 1050 337 659 709 659 1408 
C 659 2151 1114 2427 1498 2427 
C 1914 2427 2342 2126 2342 1408 
C 2342 683 1926 337 1504 337 
z
" transform="scale(0.015625)"/>
        <path id="CMSS17-72" d="M 954 1363 
C 954 1965 1395 2368 1958 2368 
L 1958 2789 
C 1549 2789 1165 2585 934 2253 
L 934 2758 
L 480 2758 
L 480 0 
L 954 0 
L 954 1363 
z
" transform="scale(0.015625)"/>
        <path id="CMSS17-6e" d="M 2618 1877 
C 2618 2283 2522 2816 1798 2816 
C 1389 2816 1120 2606 941 2389 
L 941 2758 
L 474 2758 
L 474 0 
L 960 0 
L 960 1559 
C 960 1964 1114 2428 1549 2428 
C 2112 2428 2131 2048 2131 1829 
L 2131 0 
L 2618 0 
L 2618 1877 
z
" transform="scale(0.015625)"/>
        <path id="CMSS17-61" d="M 2406 1791 
C 2406 2392 1978 2808 1402 2808 
C 1120 2808 813 2757 461 2553 
L 499 2135 
C 659 2248 934 2432 1395 2432 
C 1722 2432 1920 2180 1920 1782 
L 1920 1536 
C 896 1536 256 1238 256 726 
C 256 461 416 -64 947 -64 
C 1043 -64 1562 -64 1933 217 
L 1933 -19 
L 2406 -19 
L 2406 1791 
z
M 1920 816 
C 1920 701 1920 548 1728 434 
C 1562 325 1350 325 1261 325 
C 941 325 723 511 723 744 
C 723 1211 1722 1211 1920 1211 
L 1920 816 
z
" transform="scale(0.015625)"/>
        <path id="CMSS17-2d" d="M 1664 1216 
L 1664 1585 
L 64 1585 
L 64 1216 
L 1664 1216 
z
" transform="scale(0.015625)"/>
        <path id="CMSS17-50" d="M 2106 1856 
C 2874 1856 3501 2453 3501 3158 
C 3501 3850 2899 4453 2067 4453 
L 570 4453 
L 570 0 
L 1107 0 
L 1107 1856 
L 2106 1856 
z
M 1926 4096 
C 2669 4096 2995 3627 2995 3157 
C 2995 2720 2694 2226 1926 2226 
L 1094 2226 
L 1094 4096 
L 1926 4096 
z
" transform="scale(0.015625)"/>
        <path id="CMSS17-64" d="M 2611 4416 
L 2138 4416 
L 2138 2438 
C 1939 2603 1613 2756 1254 2756 
C 672 2756 211 2131 211 1347 
C 211 562 666 -64 1235 -64 
C 1677 -64 1971 172 2125 306 
L 2125 -13 
L 2611 -13 
L 2611 4416 
z
M 2125 836 
C 2125 747 2125 653 1926 482 
C 1798 375 1645 325 1498 325 
C 1152 325 698 576 698 1340 
C 698 2134 1210 2368 1562 2368 
C 1798 2368 1990 2254 2125 2065 
L 2125 836 
z
" transform="scale(0.015625)"/>
        <path id="CMSS17-65" d="M 2502 1377 
C 2502 1590 2490 2003 2285 2345 
C 2061 2713 1696 2816 1421 2816 
C 755 2816 192 2188 192 1375 
C 192 582 774 -64 1510 -64 
C 1798 -64 2150 19 2470 248 
C 2470 274 2458 414 2451 420 
C 2451 433 2432 630 2432 656 
C 2125 407 1773 325 1517 325 
C 1107 325 666 667 646 1377 
L 2502 1377 
z
M 698 1728 
C 781 2084 1062 2421 1421 2421 
C 1517 2421 1965 2421 2080 1728 
L 698 1728 
z
" transform="scale(0.015625)"/>
        <path id="CMSS17-6d" d="M 4288 1877 
C 4288 2308 4179 2816 3462 2816 
C 2982 2816 2694 2516 2566 2331 
C 2451 2670 2182 2816 1798 2816 
C 1363 2816 1088 2568 941 2389 
L 941 2758 
L 474 2758 
L 474 0 
L 960 0 
L 960 1559 
C 960 1939 1101 2428 1555 2428 
C 2138 2428 2138 2016 2138 1829 
L 2138 0 
L 2624 0 
L 2624 1559 
C 2624 1939 2765 2428 3219 2428 
C 3802 2428 3802 2016 3802 1829 
L 3802 0 
L 4288 0 
L 4288 1877 
z
" transform="scale(0.015625)"/>
        <path id="CMSS17-69" d="M 979 4183 
L 442 4183 
L 442 3648 
L 979 3648 
L 979 4183 
z
M 947 2739 
L 474 2739 
L 474 0 
L 947 0 
L 947 2739 
z
" transform="scale(0.015625)"/>
       </defs>
       <use xlink:href="#CMSS17-43" transform="scale(0.996264)"/>
       <use xlink:href="#CMSS17-6f" transform="translate(59.855772 0) scale(0.996264)"/>
       <use xlink:href="#CMSS17-72" transform="translate(104.096941 0) scale(0.996264)"/>
       <use xlink:href="#CMSS17-6f" transform="translate(136.006714 0) scale(0.996264)"/>
       <use xlink:href="#CMSS17-6e" transform="translate(182.850337 0) scale(0.996264)"/>
       <use xlink:href="#CMSS17-61" transform="translate(231.05528 0) scale(0.996264)"/>
       <use xlink:href="#CMSS17-2d" transform="translate(275.977201 0) scale(0.996264)"/>
       <use xlink:href="#CMSS17-50" transform="translate(307.206314 0) scale(0.996264)"/>
       <use xlink:href="#CMSS17-61" transform="translate(364.339446 0) scale(0.996264)"/>
       <use xlink:href="#CMSS17-6e" transform="translate(409.261367 0) scale(0.996264)"/>
       <use xlink:href="#CMSS17-64" transform="translate(457.46631 0) scale(0.996264)"/>
       <use xlink:href="#CMSS17-65" transform="translate(505.671253 0) scale(0.996264)"/>
       <use xlink:href="#CMSS17-6d" transform="translate(547.310075 0) scale(0.996264)"/>
       <use xlink:href="#CMSS17-69" transform="translate(621.539329 0) scale(0.996264)"/>
       <use xlink:href="#CMSS17-65" transform="translate(643.720052 0) scale(0.996264)"/>
      </g>
     </g>
    </g>
    <g id="xtick_2">
     <g id="text_2">
      <!-- Corona-Warn-App -->
      <g style="fill: #262626" transform="translate(155.944805 279.128392) scale(0.11 -0.11)">
       <defs>
        <path id="CMSS17-57" d="M 5581 4416 
L 5094 4416 
L 4557 2437 
C 4474 2118 4397 1801 4320 1482 
C 4205 1011 4122 681 4109 515 
L 4102 515 
C 4090 687 4006 1049 3904 1457 
C 3827 1795 3744 2131 3654 2462 
L 3123 4416 
L 2586 4416 
L 2080 2562 
L 1824 1549 
C 1632 747 1626 632 1613 505 
L 1606 505 
C 1606 543 1581 753 1402 1498 
C 1312 1868 1222 2244 1126 2601 
L 634 4416 
L 83 4416 
L 1299 0 
L 1830 0 
L 2336 1839 
L 2592 2851 
C 2765 3564 2803 3742 2816 3901 
L 2822 3901 
C 2822 3876 2880 3474 3130 2545 
L 3808 0 
L 4365 0 
L 5581 4416 
z
" transform="scale(0.015625)"/>
        <path id="CMSS17-41" d="M 2272 4416 
L 1722 4416 
L 166 0 
L 653 0 
L 1101 1280 
L 2816 1280 
L 3270 0 
L 3827 0 
L 2272 4416 
z
M 2694 1637 
L 1222 1637 
C 1530 2528 1914 3638 1958 3925 
L 1965 3925 
C 2010 3663 2138 3281 2246 2956 
L 2694 1637 
z
" transform="scale(0.015625)"/>
        <path id="CMSS17-70" d="M 966 333 
C 1178 129 1466 -5 1773 -5 
C 2368 -5 2880 603 2880 1412 
C 2880 2159 2496 2816 1946 2816 
C 1626 2816 1242 2702 954 2472 
L 954 2765 
L 480 2765 
L 480 -1216 
L 966 -1216 
L 966 333 
z
M 966 2100 
C 1018 2176 1235 2415 1587 2415 
C 2035 2415 2394 1960 2394 1412 
C 2394 787 1958 384 1530 384 
C 1402 384 1267 415 1139 523 
C 966 674 966 768 966 857 
L 966 2100 
z
" transform="scale(0.015625)"/>
       </defs>
       <use xlink:href="#CMSS17-43" transform="scale(0.996264)"/>
       <use xlink:href="#CMSS17-6f" transform="translate(59.855772 0) scale(0.996264)"/>
       <use xlink:href="#CMSS17-72" transform="translate(104.096941 0) scale(0.996264)"/>
       <use xlink:href="#CMSS17-6f" transform="translate(136.006714 0) scale(0.996264)"/>
       <use xlink:href="#CMSS17-6e" transform="translate(182.850337 0) scale(0.996264)"/>
       <use xlink:href="#CMSS17-61" transform="translate(231.05528 0) scale(0.996264)"/>
       <use xlink:href="#CMSS17-2d" transform="translate(275.977201 0) scale(0.996264)"/>
       <use xlink:href="#CMSS17-57" transform="translate(307.206314 0) scale(0.996264)"/>
       <use xlink:href="#CMSS17-61" transform="translate(392.846026 0) scale(0.996264)"/>
       <use xlink:href="#CMSS17-72" transform="translate(435.165493 0) scale(0.996264)"/>
       <use xlink:href="#CMSS17-6e" transform="translate(467.075265 0) scale(0.996264)"/>
       <use xlink:href="#CMSS17-2d" transform="translate(515.280208 0) scale(0.996264)"/>
       <use xlink:href="#CMSS17-41" transform="translate(546.509321 0) scale(0.996264)"/>
       <use xlink:href="#CMSS17-70" transform="translate(608.727176 0) scale(0.996264)"/>
       <use xlink:href="#CMSS17-70" transform="translate(656.932119 0) scale(0.996264)"/>
      </g>
     </g>
    </g>
    <g id="xtick_3">
     <g id="text_3">
      <!-- Reproduktionszahl -->
      <g style="fill: #262626" transform="translate(253.062081 279.128392) scale(0.11 -0.11)">
       <defs>
        <path id="CMSS17-52" d="M 2522 2109 
L 2534 2115 
C 3533 2459 3539 3147 3539 3268 
C 3539 3873 2925 4453 2003 4453 
L 570 4453 
L 570 32 
L 1094 32 
L 1094 2048 
L 2035 2048 
L 3168 32 
L 3706 32 
L 2522 2109 
z
M 1094 2437 
L 1094 4096 
L 1933 4096 
C 2746 4096 3034 3637 3034 3267 
C 3034 2922 2778 2437 1933 2437 
L 1094 2437 
z
" transform="scale(0.015625)"/>
        <path id="CMSS17-75" d="M 2618 2739 
L 2131 2739 
L 2131 972 
C 2131 498 1786 306 1421 306 
C 998 306 960 447 960 709 
L 960 2739 
L 474 2739 
L 474 678 
C 474 179 646 -64 1088 -64 
C 1306 -64 1798 -13 2144 306 
L 2144 0 
L 2618 0 
L 2618 2739 
z
" transform="scale(0.015625)"/>
        <path id="CMSS17-6b" d="M 1696 1688 
L 2688 2739 
L 2074 2739 
L 954 1554 
L 954 4416 
L 480 4416 
L 480 0 
L 947 0 
L 947 892 
L 1376 1344 
L 2278 0 
L 2822 0 
L 1696 1688 
z
" transform="scale(0.015625)"/>
        <path id="CMSS17-74" d="M 1069 2368 
L 1901 2368 
L 1901 2737 
L 1069 2737 
L 1069 3520 
L 614 3520 
L 614 2737 
L 109 2737 
L 109 2368 
L 602 2368 
L 602 749 
C 602 384 685 -64 1107 -64 
C 1427 -64 1722 25 2003 172 
L 1901 548 
C 1747 414 1562 337 1363 337 
C 1082 337 1069 696 1069 856 
L 1069 2368 
z
" transform="scale(0.015625)"/>
        <path id="CMSS17-73" d="M 2061 2627 
C 1683 2807 1389 2807 1197 2807 
C 742 2807 198 2648 198 2003 
C 198 1359 902 1218 1094 1179 
C 1389 1122 1715 1058 1715 740 
C 1715 337 1254 337 1171 337 
C 915 337 563 407 243 638 
L 166 210 
C 531 0 883 -64 1178 -64 
C 1965 -64 2163 416 2163 781 
C 2163 1094 1984 1305 1862 1401 
C 1651 1568 1574 1587 1050 1696 
C 960 1709 646 1779 646 2066 
C 646 2432 1050 2432 1139 2432 
C 1555 2432 1811 2303 1984 2208 
L 2061 2627 
z
" transform="scale(0.015625)"/>
        <path id="CMSS17-7a" d="M 2400 2502 
L 2400 2750 
L 250 2750 
L 250 2368 
L 1069 2368 
C 1146 2368 1222 2368 1299 2368 
L 1747 2368 
L 166 261 
L 166 0 
L 2419 0 
L 2419 395 
L 1549 395 
C 1472 395 1395 395 1318 395 
L 826 395 
L 2400 2502 
z
" transform="scale(0.015625)"/>
        <path id="CMSS17-68" d="M 2618 1891 
C 2618 2292 2522 2820 1798 2820 
C 1395 2820 1133 2623 947 2407 
L 947 4448 
L 474 4448 
L 474 32 
L 960 32 
L 960 1573 
C 960 1973 1114 2432 1549 2432 
C 2112 2432 2131 2056 2131 1839 
L 2131 32 
L 2618 32 
L 2618 1891 
z
" transform="scale(0.015625)"/>
        <path id="CMSS17-6c" d="M 947 4416 
L 474 4416 
L 474 0 
L 947 0 
L 947 4416 
z
" transform="scale(0.015625)"/>
       </defs>
       <use xlink:href="#CMSS17-52" transform="scale(0.996264)"/>
       <use xlink:href="#CMSS17-65" transform="translate(60.416155 0) scale(0.996264)"/>
       <use xlink:href="#CMSS17-70" transform="translate(102.054977 0) scale(0.996264)"/>
       <use xlink:href="#CMSS17-72" transform="translate(147.657466 0) scale(0.996264)"/>
       <use xlink:href="#CMSS17-6f" transform="translate(179.567239 0) scale(0.996264)"/>
       <use xlink:href="#CMSS17-64" transform="translate(229.013301 0) scale(0.996264)"/>
       <use xlink:href="#CMSS17-75" transform="translate(277.218244 0) scale(0.996264)"/>
       <use xlink:href="#CMSS17-6b" transform="translate(325.423187 0) scale(0.996264)"/>
       <use xlink:href="#CMSS17-74" transform="translate(371.025676 0) scale(0.996264)"/>
       <use xlink:href="#CMSS17-69" transform="translate(404.857243 0) scale(0.996264)"/>
       <use xlink:href="#CMSS17-6f" transform="translate(427.037966 0) scale(0.996264)"/>
       <use xlink:href="#CMSS17-6e" transform="translate(473.88159 0) scale(0.996264)"/>
       <use xlink:href="#CMSS17-73" transform="translate(522.086533 0) scale(0.996264)"/>
       <use xlink:href="#CMSS17-7a" transform="translate(558.000075 0) scale(0.996264)"/>
       <use xlink:href="#CMSS17-61" transform="translate(598.677947 0) scale(0.996264)"/>
       <use xlink:href="#CMSS17-68" transform="translate(643.599867 0) scale(0.996264)"/>
       <use xlink:href="#CMSS17-6c" transform="translate(691.80481 0) scale(0.996264)"/>
      </g>
     </g>
    </g>
    <g id="xtick_4">
     <g id="text_4">
      <!-- Werbeindustrie -->
      <g style="fill: #262626" transform="translate(358.337668 279.128392) scale(0.11 -0.11)">
       <defs>
        <path id="CMSS17-62" d="M 954 4416 
L 480 4416 
L 480 -13 
L 966 -13 
L 966 274 
C 1210 38 1504 -64 1766 -64 
C 2381 -64 2880 549 2880 1352 
C 2880 2086 2496 2756 1926 2756 
C 1523 2756 1165 2591 954 2419 
L 954 4416 
z
M 966 2046 
C 1107 2222 1306 2368 1587 2368 
C 1965 2368 2394 2097 2394 1352 
C 2394 558 1882 325 1530 325 
C 1402 325 1267 356 1139 464 
C 966 615 966 709 966 797 
L 966 2046 
z
" transform="scale(0.015625)"/>
       </defs>
       <use xlink:href="#CMSS17-57" transform="scale(0.996264)"/>
       <use xlink:href="#CMSS17-65" transform="translate(85.639712 0) scale(0.996264)"/>
       <use xlink:href="#CMSS17-72" transform="translate(127.278534 0) scale(0.996264)"/>
       <use xlink:href="#CMSS17-62" transform="translate(159.188307 0) scale(0.996264)"/>
       <use xlink:href="#CMSS17-65" transform="translate(209.995689 0) scale(0.996264)"/>
       <use xlink:href="#CMSS17-69" transform="translate(251.634511 0) scale(0.996264)"/>
       <use xlink:href="#CMSS17-6e" transform="translate(273.815234 0) scale(0.996264)"/>
       <use xlink:href="#CMSS17-64" transform="translate(322.020177 0) scale(0.996264)"/>
       <use xlink:href="#CMSS17-75" transform="translate(370.22512 0) scale(0.996264)"/>
       <use xlink:href="#CMSS17-73" transform="translate(418.430063 0) scale(0.996264)"/>
       <use xlink:href="#CMSS17-74" transform="translate(454.343605 0) scale(0.996264)"/>
       <use xlink:href="#CMSS17-72" transform="translate(488.175172 0) scale(0.996264)"/>
       <use xlink:href="#CMSS17-69" transform="translate(520.084945 0) scale(0.996264)"/>
       <use xlink:href="#CMSS17-65" transform="translate(542.265668 0) scale(0.996264)"/>
      </g>
     </g>
    </g>
   </g>
   <g id="matplotlib.axis_2">
    <g id="ytick_1">
     <g id="line2d_1">
      <path d="M 50.809319 262.018045 
L 441.409319 262.018045 
" clip-path="url(#p1ebc25b5fd)" style="fill: none; stroke: #cccccc; stroke-linecap: round"/>
     </g>
     <g id="text_5">
      <!-- $\mathdefault{0.00}$ -->
      <g style="fill: #262626" transform="translate(21.826776 265.823218) scale(0.11 -0.11)">
       <defs>
        <path id="CMR17-30" d="M 2688 2025 
C 2688 2416 2682 3080 2413 3591 
C 2176 4039 1798 4198 1466 4198 
C 1158 4198 768 4058 525 3597 
C 269 3118 243 2524 243 2025 
C 243 1661 250 1106 448 619 
C 723 -39 1216 -128 1466 -128 
C 1760 -128 2208 -7 2470 600 
C 2662 1042 2688 1559 2688 2025 
z
M 1466 -26 
C 1056 -26 813 325 723 812 
C 653 1188 653 1738 653 2096 
C 653 2588 653 2997 736 3387 
C 858 3929 1216 4096 1466 4096 
C 1728 4096 2067 3923 2189 3400 
C 2272 3036 2278 2607 2278 2096 
C 2278 1680 2278 1169 2202 792 
C 2067 95 1690 -26 1466 -26 
z
" transform="scale(0.015625)"/>
        <path id="CMMI12-3a" d="M 1178 307 
C 1178 492 1024 619 870 619 
C 685 619 557 466 557 313 
C 557 128 710 0 864 0 
C 1050 0 1178 153 1178 307 
z
" transform="scale(0.015625)"/>
       </defs>
       <use xlink:href="#CMR17-30" transform="scale(0.996264)"/>
       <use xlink:href="#CMMI12-3a" transform="translate(45.690477 0) scale(0.996264)"/>
       <use xlink:href="#CMR17-30" transform="translate(72.787654 0) scale(0.996264)"/>
       <use xlink:href="#CMR17-30" transform="translate(118.478131 0) scale(0.996264)"/>
      </g>
     </g>
    </g>
    <g id="ytick_2">
     <g id="line2d_2">
      <path d="M 50.809319 230.458615 
L 441.409319 230.458615 
" clip-path="url(#p1ebc25b5fd)" style="fill: none; stroke: #cccccc; stroke-linecap: round"/>
     </g>
     <g id="text_6">
      <!-- $\mathdefault{0.05}$ -->
      <g style="fill: #262626" transform="translate(21.826776 234.263788) scale(0.11 -0.11)">
       <defs>
        <path id="CMR17-35" d="M 730 3692 
C 794 3666 1056 3584 1325 3584 
C 1920 3584 2246 3911 2432 4100 
C 2432 4157 2432 4192 2394 4192 
C 2387 4192 2374 4192 2323 4163 
C 2099 4058 1837 3973 1517 3973 
C 1325 3973 1037 3999 723 4139 
C 653 4171 640 4171 634 4171 
C 602 4171 595 4164 595 4037 
L 595 2203 
C 595 2089 595 2057 659 2057 
C 691 2057 704 2070 736 2114 
C 941 2401 1222 2522 1542 2522 
C 1766 2522 2246 2382 2246 1289 
C 2246 1085 2246 715 2054 421 
C 1894 159 1645 25 1370 25 
C 947 25 518 320 403 814 
C 429 807 480 795 506 795 
C 589 795 749 840 749 1038 
C 749 1210 627 1280 506 1280 
C 358 1280 262 1190 262 1011 
C 262 454 704 -128 1382 -128 
C 2042 -128 2669 440 2669 1264 
C 2669 2030 2170 2624 1549 2624 
C 1222 2624 947 2503 730 2274 
L 730 3692 
z
" transform="scale(0.015625)"/>
       </defs>
       <use xlink:href="#CMR17-30" transform="scale(0.996264)"/>
       <use xlink:href="#CMMI12-3a" transform="translate(45.690477 0) scale(0.996264)"/>
       <use xlink:href="#CMR17-30" transform="translate(72.787654 0) scale(0.996264)"/>
       <use xlink:href="#CMR17-35" transform="translate(118.478131 0) scale(0.996264)"/>
      </g>
     </g>
    </g>
    <g id="ytick_3">
     <g id="line2d_3">
      <path d="M 50.809319 198.899185 
L 441.409319 198.899185 
" clip-path="url(#p1ebc25b5fd)" style="fill: none; stroke: #cccccc; stroke-linecap: round"/>
     </g>
     <g id="text_7">
      <!-- $\mathdefault{0.10}$ -->
      <g style="fill: #262626" transform="translate(21.826776 202.704358) scale(0.11 -0.11)">
       <defs>
        <path id="CMR17-31" d="M 1702 4058 
C 1702 4192 1696 4192 1606 4192 
C 1357 3916 979 3827 621 3827 
C 602 3827 570 3827 563 3808 
C 557 3795 557 3782 557 3648 
C 755 3648 1088 3686 1344 3839 
L 1344 461 
C 1344 236 1331 160 781 160 
L 589 160 
L 589 0 
C 896 0 1216 0 1523 0 
C 1830 0 2150 0 2458 0 
L 2458 160 
L 2266 160 
C 1715 160 1702 230 1702 458 
L 1702 4058 
z
" transform="scale(0.015625)"/>
       </defs>
       <use xlink:href="#CMR17-30" transform="scale(0.996264)"/>
       <use xlink:href="#CMMI12-3a" transform="translate(45.690477 0) scale(0.996264)"/>
       <use xlink:href="#CMR17-31" transform="translate(72.787654 0) scale(0.996264)"/>
       <use xlink:href="#CMR17-30" transform="translate(118.478131 0) scale(0.996264)"/>
      </g>
     </g>
    </g>
    <g id="ytick_4">
     <g id="line2d_4">
      <path d="M 50.809319 167.339755 
L 441.409319 167.339755 
" clip-path="url(#p1ebc25b5fd)" style="fill: none; stroke: #cccccc; stroke-linecap: round"/>
     </g>
     <g id="text_8">
      <!-- $\mathdefault{0.15}$ -->
      <g style="fill: #262626" transform="translate(21.826776 171.144928) scale(0.11 -0.11)">
       <use xlink:href="#CMR17-30" transform="scale(0.996264)"/>
       <use xlink:href="#CMMI12-3a" transform="translate(45.690477 0) scale(0.996264)"/>
       <use xlink:href="#CMR17-31" transform="translate(72.787654 0) scale(0.996264)"/>
       <use xlink:href="#CMR17-35" transform="translate(118.478131 0) scale(0.996264)"/>
      </g>
     </g>
    </g>
    <g id="ytick_5">
     <g id="line2d_5">
      <path d="M 50.809319 135.780324 
L 441.409319 135.780324 
" clip-path="url(#p1ebc25b5fd)" style="fill: none; stroke: #cccccc; stroke-linecap: round"/>
     </g>
     <g id="text_9">
      <!-- $\mathdefault{0.20}$ -->
      <g style="fill: #262626" transform="translate(21.826776 139.585498) scale(0.11 -0.11)">
       <defs>
        <path id="CMR17-32" d="M 2669 989 
L 2554 989 
C 2490 536 2438 459 2413 420 
C 2381 369 1920 369 1830 369 
L 602 369 
C 832 619 1280 1072 1824 1597 
C 2214 1967 2669 2402 2669 3035 
C 2669 3790 2067 4224 1395 4224 
C 691 4224 262 3604 262 3030 
C 262 2780 448 2748 525 2748 
C 589 2748 781 2787 781 3010 
C 781 3207 614 3264 525 3264 
C 486 3264 448 3258 422 3245 
C 544 3790 915 4058 1306 4058 
C 1862 4058 2227 3617 2227 3035 
C 2227 2479 1901 2000 1536 1584 
L 262 146 
L 262 0 
L 2515 0 
L 2669 989 
z
" transform="scale(0.015625)"/>
       </defs>
       <use xlink:href="#CMR17-30" transform="scale(0.996264)"/>
       <use xlink:href="#CMMI12-3a" transform="translate(45.690477 0) scale(0.996264)"/>
       <use xlink:href="#CMR17-32" transform="translate(72.787654 0) scale(0.996264)"/>
       <use xlink:href="#CMR17-30" transform="translate(118.478131 0) scale(0.996264)"/>
      </g>
     </g>
    </g>
    <g id="ytick_6">
     <g id="line2d_6">
      <path d="M 50.809319 104.220894 
L 441.409319 104.220894 
" clip-path="url(#p1ebc25b5fd)" style="fill: none; stroke: #cccccc; stroke-linecap: round"/>
     </g>
     <g id="text_10">
      <!-- $\mathdefault{0.25}$ -->
      <g style="fill: #262626" transform="translate(21.826776 108.026068) scale(0.11 -0.11)">
       <use xlink:href="#CMR17-30" transform="scale(0.996264)"/>
       <use xlink:href="#CMMI12-3a" transform="translate(45.690477 0) scale(0.996264)"/>
       <use xlink:href="#CMR17-32" transform="translate(72.787654 0) scale(0.996264)"/>
       <use xlink:href="#CMR17-35" transform="translate(118.478131 0) scale(0.996264)"/>
      </g>
     </g>
    </g>
    <g id="ytick_7">
     <g id="line2d_7">
      <path d="M 50.809319 72.661464 
L 441.409319 72.661464 
" clip-path="url(#p1ebc25b5fd)" style="fill: none; stroke: #cccccc; stroke-linecap: round"/>
     </g>
     <g id="text_11">
      <!-- $\mathdefault{0.30}$ -->
      <g style="fill: #262626" transform="translate(21.826776 76.466638) scale(0.11 -0.11)">
       <defs>
        <path id="CMR17-33" d="M 1414 2157 
C 1984 2157 2234 1662 2234 1090 
C 2234 320 1824 25 1453 25 
C 1114 25 563 194 390 693 
C 422 680 454 680 486 680 
C 640 680 755 782 755 948 
C 755 1133 614 1216 486 1216 
C 378 1216 211 1165 211 926 
C 211 335 787 -128 1466 -128 
C 2176 -128 2720 430 2720 1085 
C 2720 1707 2208 2157 1600 2227 
C 2086 2328 2554 2756 2554 3329 
C 2554 3820 2048 4179 1472 4179 
C 890 4179 378 3829 378 3329 
C 378 3110 544 3072 627 3072 
C 762 3072 877 3155 877 3321 
C 877 3486 762 3569 627 3569 
C 602 3569 570 3569 544 3557 
C 730 3959 1235 4032 1459 4032 
C 1683 4032 2106 3925 2106 3320 
C 2106 3143 2080 2828 1862 2550 
C 1670 2304 1453 2304 1242 2284 
C 1210 2284 1062 2269 1037 2269 
C 992 2263 966 2257 966 2208 
C 966 2163 973 2157 1101 2157 
L 1414 2157 
z
" transform="scale(0.015625)"/>
       </defs>
       <use xlink:href="#CMR17-30" transform="scale(0.996264)"/>
       <use xlink:href="#CMMI12-3a" transform="translate(45.690477 0) scale(0.996264)"/>
       <use xlink:href="#CMR17-33" transform="translate(72.787654 0) scale(0.996264)"/>
       <use xlink:href="#CMR17-30" transform="translate(118.478131 0) scale(0.996264)"/>
      </g>
     </g>
    </g>
    <g id="ytick_8">
     <g id="line2d_8">
      <path d="M 50.809319 41.102034 
L 441.409319 41.102034 
" clip-path="url(#p1ebc25b5fd)" style="fill: none; stroke: #cccccc; stroke-linecap: round"/>
     </g>
     <g id="text_12">
      <!-- $\mathdefault{0.35}$ -->
      <g style="fill: #262626" transform="translate(21.826776 44.907207) scale(0.11 -0.11)">
       <use xlink:href="#CMR17-30" transform="scale(0.996264)"/>
       <use xlink:href="#CMMI12-3a" transform="translate(45.690477 0) scale(0.996264)"/>
       <use xlink:href="#CMR17-33" transform="translate(72.787654 0) scale(0.996264)"/>
       <use xlink:href="#CMR17-35" transform="translate(118.478131 0) scale(0.996264)"/>
      </g>
     </g>
    </g>
    <g id="text_13">
     <!-- Anteil inkonsistenter Vergleiche -->
     <g style="fill: #262626" transform="translate(15.50218 218.38573) rotate(-90) scale(0.12 -0.12)">
      <defs>
       <path id="CMSS17-56" d="M 3910 4416 
L 3411 4416 
L 2304 1362 
C 2272 1273 2074 688 2035 484 
L 2029 484 
C 1978 726 1773 1292 1664 1604 
L 922 3672 
L 646 4416 
L 83 4416 
L 1715 0 
L 2278 0 
L 3910 4416 
z
" transform="scale(0.015625)"/>
       <path id="CMSS17-67" d="M 2848 2808 
C 2483 2808 2170 2738 1914 2617 
C 1702 2777 1485 2808 1338 2808 
C 781 2808 358 2349 358 1814 
C 358 1468 550 1207 563 1195 
C 448 1035 384 863 384 672 
C 384 448 474 289 544 200 
C 211 -3 166 -314 166 -435 
C 166 -898 749 -1280 1498 -1280 
C 2253 -1280 2835 -898 2835 -428 
C 2835 448 1856 448 1587 448 
L 1069 448 
C 973 448 717 448 717 791 
C 717 921 774 1004 781 1010 
C 877 940 1075 832 1338 832 
C 1869 832 2310 1278 2310 1827 
C 2310 2132 2170 2355 2112 2432 
L 2131 2432 
C 2150 2432 2419 2432 2515 2432 
C 2720 2432 2739 2429 2918 2419 
L 2848 2808 
z
M 1338 1182 
C 1120 1182 813 1315 813 1823 
C 813 2375 1165 2464 1331 2464 
C 1549 2464 1856 2331 1856 1823 
C 1856 1271 1504 1182 1338 1182 
z
M 1581 -10 
C 1734 -10 2381 -10 2381 -442 
C 2381 -714 1984 -929 1504 -929 
C 1018 -929 621 -720 621 -435 
C 621 -403 621 -10 1062 -10 
L 1581 -10 
z
" transform="scale(0.015625)"/>
       <path id="CMSS17-63" d="M 2464 2541 
C 2464 2585 2170 2714 2093 2739 
C 1882 2816 1613 2816 1542 2816 
C 710 2816 211 2093 211 1363 
C 211 595 768 -64 1517 -64 
C 1946 -64 2253 76 2502 242 
L 2464 664 
C 2189 453 1869 337 1523 337 
C 1024 337 698 774 698 1369 
C 698 1831 909 2414 1549 2414 
C 1901 2414 2099 2343 2394 2145 
L 2464 2541 
z
" transform="scale(0.015625)"/>
      </defs>
      <use xlink:href="#CMSS17-41" transform="scale(0.996264)"/>
      <use xlink:href="#CMSS17-6e" transform="translate(62.217855 0) scale(0.996264)"/>
      <use xlink:href="#CMSS17-74" transform="translate(110.422798 0) scale(0.996264)"/>
      <use xlink:href="#CMSS17-65" transform="translate(144.254365 0) scale(0.996264)"/>
      <use xlink:href="#CMSS17-69" transform="translate(185.893187 0) scale(0.996264)"/>
      <use xlink:href="#CMSS17-6c" transform="translate(208.07391 0) scale(0.996264)"/>
      <use xlink:href="#CMSS17-69" transform="translate(261.483746 0) scale(0.996264)"/>
      <use xlink:href="#CMSS17-6e" transform="translate(283.664469 0) scale(0.996264)"/>
      <use xlink:href="#CMSS17-6b" transform="translate(331.869412 0) scale(0.996264)"/>
      <use xlink:href="#CMSS17-6f" transform="translate(374.869447 0) scale(0.996264)"/>
      <use xlink:href="#CMSS17-6e" transform="translate(421.713071 0) scale(0.996264)"/>
      <use xlink:href="#CMSS17-73" transform="translate(469.918014 0) scale(0.996264)"/>
      <use xlink:href="#CMSS17-69" transform="translate(505.831556 0) scale(0.996264)"/>
      <use xlink:href="#CMSS17-73" transform="translate(528.012279 0) scale(0.996264)"/>
      <use xlink:href="#CMSS17-74" transform="translate(563.925821 0) scale(0.996264)"/>
      <use xlink:href="#CMSS17-65" transform="translate(597.757387 0) scale(0.996264)"/>
      <use xlink:href="#CMSS17-6e" transform="translate(639.39621 0) scale(0.996264)"/>
      <use xlink:href="#CMSS17-74" transform="translate(687.601153 0) scale(0.996264)"/>
      <use xlink:href="#CMSS17-65" transform="translate(721.432719 0) scale(0.996264)"/>
      <use xlink:href="#CMSS17-72" transform="translate(763.071541 0) scale(0.996264)"/>
      <use xlink:href="#CMSS17-56" transform="translate(826.210427 0) scale(0.996264)"/>
      <use xlink:href="#CMSS17-65" transform="translate(885.825828 0) scale(0.996264)"/>
      <use xlink:href="#CMSS17-72" transform="translate(927.46465 0) scale(0.996264)"/>
      <use xlink:href="#CMSS17-67" transform="translate(959.374422 0) scale(0.996264)"/>
      <use xlink:href="#CMSS17-6c" transform="translate(1006.218046 0) scale(0.996264)"/>
      <use xlink:href="#CMSS17-65" transform="translate(1028.398769 0) scale(0.996264)"/>
      <use xlink:href="#CMSS17-69" transform="translate(1070.037591 0) scale(0.996264)"/>
      <use xlink:href="#CMSS17-63" transform="translate(1092.218314 0) scale(0.996264)"/>
      <use xlink:href="#CMSS17-68" transform="translate(1133.857136 0) scale(0.996264)"/>
      <use xlink:href="#CMSS17-65" transform="translate(1182.062079 0) scale(0.996264)"/>
     </g>
    </g>
   </g>
   <g id="patch_3">
    <path d="M 60.574319 262.018045 
L 99.634319 262.018045 
L 99.634319 203.67288 
L 60.574319 203.67288 
z
" clip-path="url(#p1ebc25b5fd)" style="fill: #5875a4; stroke: #ffffff; stroke-linejoin: miter"/>
   </g>
   <g id="patch_4">
    <path d="M 158.224319 262.018045 
L 197.284319 262.018045 
L 197.284319 229.389757 
L 158.224319 229.389757 
z
" clip-path="url(#p1ebc25b5fd)" style="fill: #5875a4; stroke: #ffffff; stroke-linejoin: miter"/>
   </g>
   <g id="patch_5">
    <path d="M 255.874319 262.018045 
L 294.934319 262.018045 
L 294.934319 192.027373 
L 255.874319 192.027373 
z
" clip-path="url(#p1ebc25b5fd)" style="fill: #5875a4; stroke: #ffffff; stroke-linejoin: miter"/>
   </g>
   <g id="patch_6">
    <path d="M 353.524319 262.018045 
L 392.584319 262.018045 
L 392.584319 209.418995 
L 353.524319 209.418995 
z
" clip-path="url(#p1ebc25b5fd)" style="fill: #5875a4; stroke: #ffffff; stroke-linejoin: miter"/>
   </g>
   <g id="patch_7">
    <path d="M 99.634319 262.018045 
L 138.694319 262.018045 
L 138.694319 233.375873 
L 99.634319 233.375873 
z
" clip-path="url(#p1ebc25b5fd)" style="fill: #cc8963; stroke: #ffffff; stroke-linejoin: miter"/>
   </g>
   <g id="patch_8">
    <path d="M 197.284319 262.018045 
L 236.344319 262.018045 
L 236.344319 235.015324 
L 197.284319 235.015324 
z
" clip-path="url(#p1ebc25b5fd)" style="fill: #cc8963; stroke: #ffffff; stroke-linejoin: miter"/>
   </g>
   <g id="patch_9">
    <path d="M 294.934319 262.018045 
L 333.994319 262.018045 
L 333.994319 242.92968 
L 294.934319 242.92968 
z
" clip-path="url(#p1ebc25b5fd)" style="fill: #cc8963; stroke: #ffffff; stroke-linejoin: miter"/>
   </g>
   <g id="patch_10">
    <path d="M 392.584319 262.018045 
L 431.644319 262.018045 
L 431.644319 228.545922 
L 392.584319 228.545922 
z
" clip-path="url(#p1ebc25b5fd)" style="fill: #cc8963; stroke: #ffffff; stroke-linejoin: miter"/>
   </g>
   <g id="patch_11">
    <path d="M 99.634319 262.018045 
L 99.634319 262.018045 
L 99.634319 262.018045 
L 99.634319 262.018045 
z
" clip-path="url(#p1ebc25b5fd)" style="fill: #5875a4; stroke: #ffffff; stroke-linejoin: miter"/>
   </g>
   <g id="patch_12">
    <path d="M 99.634319 262.018045 
L 99.634319 262.018045 
L 99.634319 262.018045 
L 99.634319 262.018045 
z
" clip-path="url(#p1ebc25b5fd)" style="fill: #cc8963; stroke: #ffffff; stroke-linejoin: miter"/>
   </g>
   <g id="line2d_9">
    <path clip-path="url(#p1ebc25b5fd)" style="fill: none; stroke: #424242; stroke-width: 2.25; stroke-linecap: round"/>
   </g>
   <g id="line2d_10">
    <path clip-path="url(#p1ebc25b5fd)" style="fill: none; stroke: #424242; stroke-width: 2.25; stroke-linecap: round"/>
   </g>
   <g id="line2d_11">
    <path clip-path="url(#p1ebc25b5fd)" style="fill: none; stroke: #424242; stroke-width: 2.25; stroke-linecap: round"/>
   </g>
   <g id="line2d_12">
    <path clip-path="url(#p1ebc25b5fd)" style="fill: none; stroke: #424242; stroke-width: 2.25; stroke-linecap: round"/>
   </g>
   <g id="line2d_13">
    <path clip-path="url(#p1ebc25b5fd)" style="fill: none; stroke: #424242; stroke-width: 2.25; stroke-linecap: round"/>
   </g>
   <g id="line2d_14">
    <path clip-path="url(#p1ebc25b5fd)" style="fill: none; stroke: #424242; stroke-width: 2.25; stroke-linecap: round"/>
   </g>
   <g id="line2d_15">
    <path clip-path="url(#p1ebc25b5fd)" style="fill: none; stroke: #424242; stroke-width: 2.25; stroke-linecap: round"/>
   </g>
   <g id="line2d_16">
    <path clip-path="url(#p1ebc25b5fd)" style="fill: none; stroke: #424242; stroke-width: 2.25; stroke-linecap: round"/>
   </g>
   <g id="patch_13">
    <path d="M 50.809319 262.018045 
L 50.809319 22.166376 
" style="fill: none; stroke: #cccccc; stroke-width: 1.25; stroke-linejoin: miter; stroke-linecap: square"/>
   </g>
   <g id="patch_14">
    <path d="M 441.409319 262.018045 
L 441.409319 22.166376 
" style="fill: none; stroke: #cccccc; stroke-width: 1.25; stroke-linejoin: miter; stroke-linecap: square"/>
   </g>
   <g id="patch_15">
    <path d="M 50.809319 262.018045 
L 441.409319 262.018045 
" style="fill: none; stroke: #cccccc; stroke-width: 1.25; stroke-linejoin: miter; stroke-linecap: square"/>
   </g>
   <g id="patch_16">
    <path d="M 50.809319 22.166376 
L 441.409319 22.166376 
" style="fill: none; stroke: #cccccc; stroke-width: 1.25; stroke-linejoin: miter; stroke-linecap: square"/>
   </g>
   <g id="text_14">
    <!-- Anteil inkons. Vergleiche $C(AB) \neq C(BA)$ nach Position Bias (DeepSeek-R1) -->
    <g style="fill: #262626" transform="translate(53.195843 16.166376) scale(0.12 -0.12)">
     <defs>
      <path id="CMSS17-2e" d="M 1088 510 
L 576 510 
L 576 0 
L 1088 0 
L 1088 510 
z
" transform="scale(0.015625)"/>
      <path id="CMMI12-43" d="M 4781 4423 
C 4781 4480 4736 4480 4723 4480 
C 4710 4480 4685 4480 4634 4416 
L 4192 3882 
C 3968 4264 3616 4480 3136 4480 
C 1754 4480 320 3088 320 1595 
C 320 533 1069 -128 2003 -128 
C 2515 -128 2963 88 3334 400 
C 3891 863 4058 1481 4058 1531 
C 4058 1588 4006 1588 3987 1588 
C 3930 1588 3923 1550 3910 1524 
C 3616 534 2752 57 2112 57 
C 1434 57 845 489 845 1391 
C 845 1595 909 2700 1632 3532 
C 1984 3939 2586 4295 3194 4295 
C 3898 4295 4211 3717 4211 3068 
C 4211 2903 4192 2764 4192 2738 
C 4192 2681 4256 2681 4275 2681 
C 4346 2681 4352 2687 4378 2801 
L 4781 4423 
z
" transform="scale(0.015625)"/>
      <path id="CMR17-28" d="M 1958 -1561 
C 1958 -1555 1958 -1542 1939 -1523 
C 1645 -1224 858 -407 858 1581 
C 858 3569 1632 4379 1946 4697 
C 1946 4704 1958 4717 1958 4736 
C 1958 4755 1939 4768 1914 4768 
C 1843 4768 1299 4296 986 3594 
C 666 2887 576 2199 576 1588 
C 576 1128 621 351 1005 -471 
C 1312 -1135 1837 -1600 1914 -1600 
C 1946 -1600 1958 -1587 1958 -1561 
z
" transform="scale(0.015625)"/>
      <path id="CMMI12-41" d="M 1088 691 
C 864 314 646 186 339 186 
C 269 180 218 180 218 58 
C 218 24 250 0 294 0 
C 410 0 698 0 813 0 
C 998 0 1203 0 1382 0 
C 1421 0 1498 0 1498 122 
C 1498 180 1446 186 1408 186 
C 1261 186 1139 236 1139 388 
C 1139 476 1178 546 1261 685 
L 1747 1479 
L 3379 1479 
C 3386 1423 3386 1373 3392 1316 
C 3411 1152 3488 495 3488 376 
C 3488 186 3162 186 3059 186 
C 2989 186 2918 186 2918 70 
C 2918 0 2976 0 3014 0 
C 3123 0 3251 0 3360 0 
L 3725 0 
C 4115 0 4397 0 4403 0 
C 4448 0 4518 0 4518 122 
C 4518 186 4461 186 4365 186 
C 4013 186 4006 244 3987 434 
L 3597 4404 
C 3584 4531 3558 4544 3488 4544 
C 3424 4544 3386 4531 3328 4435 
L 1088 691 
z
M 1856 1664 
L 3142 3819 
L 3360 1664 
L 1856 1664 
z
" transform="scale(0.015625)"/>
      <path id="CMMI12-42" d="M 2342 3921 
C 2400 4160 2426 4160 2675 4160 
L 3507 4160 
C 4230 4160 4230 3544 4230 3485 
C 4230 2966 3712 2304 2867 2304 
L 1946 2304 
L 2342 3921 
z
M 3424 2275 
C 4122 2402 4755 2886 4755 3473 
C 4755 3970 4314 4352 3590 4352 
L 1536 4352 
C 1414 4352 1357 4352 1357 4226 
C 1357 4160 1414 4160 1510 4160 
C 1901 4160 1901 4112 1901 4044 
C 1901 4032 1901 3993 1875 3897 
L 1011 472 
C 954 249 941 185 493 185 
C 371 185 307 185 307 70 
C 307 0 346 0 474 0 
L 2669 0 
C 3648 0 4403 739 4403 1383 
C 4403 1906 3942 2224 3424 2275 
z
M 2515 185 
L 1651 185 
C 1562 185 1549 185 1510 192 
C 1440 198 1434 211 1434 261 
C 1434 305 1446 343 1459 399 
L 1907 2176 
L 3110 2176 
C 3866 2176 3866 1483 3866 1433 
C 3866 828 3309 185 2515 185 
z
" transform="scale(0.015625)"/>
      <path id="CMR17-29" d="M 1683 1581 
C 1683 2040 1638 2817 1254 3639 
C 947 4303 422 4768 346 4768 
C 326 4768 301 4761 301 4729 
C 301 4717 307 4710 314 4697 
C 621 4378 1402 3568 1402 1584 
C 1402 -407 627 -1217 314 -1537 
C 307 -1549 301 -1556 301 -1568 
C 301 -1600 326 -1600 346 -1600 
C 416 -1600 960 -1128 1274 -426 
C 1594 281 1683 969 1683 1581 
z
" transform="scale(0.015625)"/>
      <path id="CMSY10-36" d="M 4032 4333 
C 4083 4422 4083 4435 4083 4454 
C 4083 4499 4045 4582 3955 4582 
C 3878 4582 3859 4544 3814 4454 
L 941 -1133 
C 890 -1222 890 -1235 890 -1254 
C 890 -1306 934 -1382 1018 -1382 
C 1094 -1382 1114 -1344 1158 -1254 
L 4032 4333 
z
" transform="scale(0.015625)"/>
      <path id="CMR17-3d" d="M 4115 2017 
C 4211 2017 4307 2017 4307 2125 
C 4307 2240 4198 2240 4090 2240 
L 512 2240 
C 403 2240 294 2240 294 2125 
C 294 2017 390 2017 486 2017 
L 4115 2017 
z
M 4090 896 
C 4198 896 4307 896 4307 1011 
C 4307 1119 4211 1119 4115 1119 
L 486 1119 
C 390 1119 294 1119 294 1011 
C 294 896 403 896 512 896 
L 4090 896 
z
" transform="scale(0.015625)"/>
      <path id="CMSS17-42" d="M 570 4416 
L 570 0 
L 2163 0 
C 3034 0 3667 574 3667 1200 
C 3667 1685 3251 2176 2502 2317 
C 3334 2558 3501 3040 3501 3313 
C 3501 3883 2874 4416 1997 4416 
L 570 4416 
z
M 1088 2496 
L 1088 4059 
L 1824 4059 
C 2483 4059 3002 3724 3002 3306 
C 3002 2926 2592 2496 1766 2496 
L 1088 2496 
z
M 1088 357 
L 1088 2107 
L 1939 2107 
C 2630 2107 3162 1679 3162 1206 
C 3162 772 2694 357 1984 357 
L 1088 357 
z
" transform="scale(0.015625)"/>
      <path id="CMSS17-28" d="M 1613 4768 
C 1267 4417 474 3601 474 1588 
C 474 -433 1267 -1243 1613 -1600 
L 2003 -1600 
C 1216 -784 960 357 960 1581 
C 960 2798 1203 3946 2003 4768 
L 1613 4768 
z
" transform="scale(0.015625)"/>
      <path id="CMSS17-44" d="M 570 4416 
L 570 0 
L 2144 0 
C 3194 0 4000 980 4000 2170 
C 4000 3398 3194 4416 2144 4416 
L 570 4416 
z
M 1094 357 
L 1094 4059 
L 2003 4059 
C 2861 4059 3475 3277 3475 2170 
C 3475 1107 2867 357 2003 357 
L 1094 357 
z
" transform="scale(0.015625)"/>
      <path id="CMSS17-53" d="M 2797 4169 
C 2515 4334 2208 4480 1690 4480 
C 864 4480 333 3879 333 3266 
C 333 3025 403 2753 653 2475 
C 902 2196 1184 2121 1542 2033 
C 1690 1994 1939 1924 1984 1906 
C 2342 1767 2515 1444 2515 1140 
C 2515 742 2202 318 1645 318 
C 1453 318 890 318 358 819 
L 269 318 
C 794 -64 1363 -128 1651 -128 
C 2438 -128 3002 488 3002 1186 
C 3002 1440 2925 1763 2656 2061 
C 2394 2347 2163 2410 1638 2549 
C 1338 2626 1146 2677 986 2873 
C 877 3013 819 3146 819 3317 
C 819 3673 1126 4060 1690 4060 
C 1971 4060 2336 4002 2707 3660 
L 2797 4169 
z
" transform="scale(0.015625)"/>
      <path id="CMSS17-31" d="M 1818 4288 
L 1696 4288 
C 1350 3940 947 3890 538 3890 
L 538 3520 
C 723 3520 1024 3520 1325 3667 
L 1325 369 
L 570 369 
L 570 0 
L 2573 0 
L 2573 369 
L 1818 369 
L 1818 4288 
z
" transform="scale(0.015625)"/>
      <path id="CMSS17-29" d="M 723 -1600 
C 1069 -1249 1862 -433 1862 1581 
C 1862 3601 1069 4411 723 4768 
L 333 4768 
C 1120 3952 1376 2811 1376 1588 
C 1376 370 1133 -778 333 -1600 
L 723 -1600 
z
" transform="scale(0.015625)"/>
     </defs>
     <use xlink:href="#CMSS17-41" transform="scale(0.996264)"/>
     <use xlink:href="#CMSS17-6e" transform="translate(62.217855 0) scale(0.996264)"/>
     <use xlink:href="#CMSS17-74" transform="translate(110.422798 0) scale(0.996264)"/>
     <use xlink:href="#CMSS17-65" transform="translate(144.254365 0) scale(0.996264)"/>
     <use xlink:href="#CMSS17-69" transform="translate(185.893187 0) scale(0.996264)"/>
     <use xlink:href="#CMSS17-6c" transform="translate(208.07391 0) scale(0.996264)"/>
     <use xlink:href="#CMSS17-69" transform="translate(261.483746 0) scale(0.996264)"/>
     <use xlink:href="#CMSS17-6e" transform="translate(283.664469 0) scale(0.996264)"/>
     <use xlink:href="#CMSS17-6b" transform="translate(331.869412 0) scale(0.996264)"/>
     <use xlink:href="#CMSS17-6f" transform="translate(374.869447 0) scale(0.996264)"/>
     <use xlink:href="#CMSS17-6e" transform="translate(421.713071 0) scale(0.996264)"/>
     <use xlink:href="#CMSS17-73" transform="translate(469.918014 0) scale(0.996264)"/>
     <use xlink:href="#CMSS17-2e" transform="translate(505.831556 0) scale(0.996264)"/>
     <use xlink:href="#CMSS17-56" transform="translate(573.494567 0) scale(0.996264)"/>
     <use xlink:href="#CMSS17-65" transform="translate(633.109968 0) scale(0.996264)"/>
     <use xlink:href="#CMSS17-72" transform="translate(674.748791 0) scale(0.996264)"/>
     <use xlink:href="#CMSS17-67" transform="translate(706.658563 0) scale(0.996264)"/>
     <use xlink:href="#CMSS17-6c" transform="translate(753.502187 0) scale(0.996264)"/>
     <use xlink:href="#CMSS17-65" transform="translate(775.68291 0) scale(0.996264)"/>
     <use xlink:href="#CMSS17-69" transform="translate(817.321732 0) scale(0.996264)"/>
     <use xlink:href="#CMSS17-63" transform="translate(839.502455 0) scale(0.996264)"/>
     <use xlink:href="#CMSS17-68" transform="translate(881.141277 0) scale(0.996264)"/>
     <use xlink:href="#CMSS17-65" transform="translate(929.34622 0) scale(0.996264)"/>
     <use xlink:href="#CMMI12-43" transform="translate(1002.214155 0) scale(0.996264)"/>
     <use xlink:href="#CMR17-28" transform="translate(1079.161001 0) scale(0.996264)"/>
     <use xlink:href="#CMMI12-41" transform="translate(1114.441769 0) scale(0.996264)"/>
     <use xlink:href="#CMMI12-42" transform="translate(1187.569655 0) scale(0.996264)"/>
     <use xlink:href="#CMR17-29" transform="translate(1266.705178 0) scale(0.996264)"/>
     <use xlink:href="#CMSY10-36" transform="translate(1329.659954 0) scale(0.996264)"/>
     <use xlink:href="#CMR17-3d" transform="translate(1329.659954 0) scale(0.996264)"/>
     <use xlink:href="#CMMI12-43" transform="translate(1429.048752 0) scale(0.996264)"/>
     <use xlink:href="#CMR17-28" transform="translate(1505.995598 0) scale(0.996264)"/>
     <use xlink:href="#CMMI12-42" transform="translate(1541.276366 0) scale(0.996264)"/>
     <use xlink:href="#CMMI12-41" transform="translate(1620.411889 0) scale(0.996264)"/>
     <use xlink:href="#CMR17-29" transform="translate(1693.539775 0) scale(0.996264)"/>
     <use xlink:href="#CMSS17-6e" transform="translate(1760.049655 0) scale(0.996264)"/>
     <use xlink:href="#CMSS17-61" transform="translate(1808.254598 0) scale(0.996264)"/>
     <use xlink:href="#CMSS17-63" transform="translate(1853.176519 0) scale(0.996264)"/>
     <use xlink:href="#CMSS17-68" transform="translate(1894.815341 0) scale(0.996264)"/>
     <use xlink:href="#CMSS17-50" transform="translate(1974.249397 0) scale(0.996264)"/>
     <use xlink:href="#CMSS17-6f" transform="translate(2031.382529 0) scale(0.996264)"/>
     <use xlink:href="#CMSS17-73" transform="translate(2078.226153 0) scale(0.996264)"/>
     <use xlink:href="#CMSS17-69" transform="translate(2114.139695 0) scale(0.996264)"/>
     <use xlink:href="#CMSS17-74" transform="translate(2136.320418 0) scale(0.996264)"/>
     <use xlink:href="#CMSS17-69" transform="translate(2170.151984 0) scale(0.996264)"/>
     <use xlink:href="#CMSS17-6f" transform="translate(2192.332707 0) scale(0.996264)"/>
     <use xlink:href="#CMSS17-6e" transform="translate(2239.176331 0) scale(0.996264)"/>
     <use xlink:href="#CMSS17-42" transform="translate(2318.610387 0) scale(0.996264)"/>
     <use xlink:href="#CMSS17-69" transform="translate(2380.948427 0) scale(0.996264)"/>
     <use xlink:href="#CMSS17-61" transform="translate(2403.12915 0) scale(0.996264)"/>
     <use xlink:href="#CMSS17-73" transform="translate(2448.051071 0) scale(0.996264)"/>
     <use xlink:href="#CMSS17-28" transform="translate(2515.193725 0) scale(0.996264)"/>
     <use xlink:href="#CMSS17-44" transform="translate(2551.62764 0) scale(0.996264)"/>
     <use xlink:href="#CMSS17-65" transform="translate(2619.170481 0) scale(0.996264)"/>
     <use xlink:href="#CMSS17-65" transform="translate(2660.809303 0) scale(0.996264)"/>
     <use xlink:href="#CMSS17-70" transform="translate(2702.448125 0) scale(0.996264)"/>
     <use xlink:href="#CMSS17-53" transform="translate(2750.653069 0) scale(0.996264)"/>
     <use xlink:href="#CMSS17-65" transform="translate(2802.701585 0) scale(0.996264)"/>
     <use xlink:href="#CMSS17-65" transform="translate(2844.340407 0) scale(0.996264)"/>
     <use xlink:href="#CMSS17-6b" transform="translate(2885.979229 0) scale(0.996264)"/>
     <use xlink:href="#CMSS17-2d" transform="translate(2931.581718 0) scale(0.996264)"/>
     <use xlink:href="#CMSS17-52" transform="translate(2962.810831 0) scale(0.996264)"/>
     <use xlink:href="#CMSS17-31" transform="translate(3023.226986 0) scale(0.996264)"/>
     <use xlink:href="#CMSS17-29" transform="translate(3070.070609 0) scale(0.996264)"/>
    </g>
   </g>
   <g id="legend_1">
    <g id="patch_17">
     <path d="M 289.474219 89.710109 
L 433.709319 89.710109 
Q 435.909319 89.710109 435.909319 87.510109 
L 435.909319 29.866376 
Q 435.909319 27.666376 433.709319 27.666376 
L 289.474219 27.666376 
Q 287.274219 27.666376 287.274219 29.866376 
L 287.274219 87.510109 
Q 287.274219 89.710109 289.474219 89.710109 
z
" style="fill: #ffffff; opacity: 0.8; stroke: #cccccc; stroke-linejoin: miter"/>
    </g>
    <g id="text_15">
     <!-- Vergleichsergebnis bei\\Präsentationsreihenfolge $AB$ -->
     <g style="fill: #262626" transform="translate(291.674219 40.368556) scale(0.12 -0.12)">
      <defs>
       <path id="CMSS17-7f" d="M 1178 4164 
L 659 4164 
L 659 3648 
L 1178 3648 
L 1178 4164 
z
M 2342 4164 
L 1824 4164 
L 1824 3648 
L 2342 3648 
L 2342 4164 
z
" transform="scale(0.015625)"/>
       <path id="CMSS17-66" d="M 1075 2368 
L 1722 2368 
L 1722 2737 
L 1062 2737 
L 1062 3559 
C 1062 4014 1408 4092 1606 4092 
C 1670 4092 1850 4092 2080 4009 
L 2080 4429 
C 1933 4461 1754 4480 1613 4480 
C 1018 4480 602 3993 602 3359 
L 602 2737 
L 160 2737 
L 160 2368 
L 602 2368 
L 602 0 
L 1075 0 
L 1075 2368 
z
" transform="scale(0.015625)"/>
      </defs>
      <use xlink:href="#CMSS17-56" transform="translate(14.94396 0) scale(0.996264)"/>
      <use xlink:href="#CMSS17-65" transform="translate(74.559361 0) scale(0.996264)"/>
      <use xlink:href="#CMSS17-72" transform="translate(116.198183 0) scale(0.996264)"/>
      <use xlink:href="#CMSS17-67" transform="translate(148.107956 0) scale(0.996264)"/>
      <use xlink:href="#CMSS17-6c" transform="translate(194.951579 0) scale(0.996264)"/>
      <use xlink:href="#CMSS17-65" transform="translate(217.132302 0) scale(0.996264)"/>
      <use xlink:href="#CMSS17-69" transform="translate(258.771124 0) scale(0.996264)"/>
      <use xlink:href="#CMSS17-63" transform="translate(280.951847 0) scale(0.996264)"/>
      <use xlink:href="#CMSS17-68" transform="translate(322.59067 0) scale(0.996264)"/>
      <use xlink:href="#CMSS17-73" transform="translate(370.795613 0) scale(0.996264)"/>
      <use xlink:href="#CMSS17-65" transform="translate(406.709155 0) scale(0.996264)"/>
      <use xlink:href="#CMSS17-72" transform="translate(448.347977 0) scale(0.996264)"/>
      <use xlink:href="#CMSS17-67" transform="translate(480.257749 0) scale(0.996264)"/>
      <use xlink:href="#CMSS17-65" transform="translate(527.101373 0) scale(0.996264)"/>
      <use xlink:href="#CMSS17-62" transform="translate(568.740195 0) scale(0.996264)"/>
      <use xlink:href="#CMSS17-6e" transform="translate(616.945138 0) scale(0.996264)"/>
      <use xlink:href="#CMSS17-69" transform="translate(665.150081 0) scale(0.996264)"/>
      <use xlink:href="#CMSS17-73" transform="translate(687.330804 0) scale(0.996264)"/>
      <use xlink:href="#CMSS17-62" transform="translate(754.473459 0) scale(0.996264)"/>
      <use xlink:href="#CMSS17-65" transform="translate(805.280841 0) scale(0.996264)"/>
      <use xlink:href="#CMSS17-69" transform="translate(846.919663 0) scale(0.996264)"/>
      <use xlink:href="#CMSS17-50" transform="translate(0 -89.559461) scale(0.996264)"/>
      <use xlink:href="#CMSS17-72" transform="translate(59.735586 -89.559461) scale(0.996264)"/>
      <use xlink:href="#CMSS17-7f" transform="translate(90.6845 -89.559461) scale(0.996264)"/>
      <use xlink:href="#CMSS17-61" transform="translate(91.645359 -89.559461) scale(0.996264)"/>
      <use xlink:href="#CMSS17-73" transform="translate(136.567279 -89.559461) scale(0.996264)"/>
      <use xlink:href="#CMSS17-65" transform="translate(172.480821 -89.559461) scale(0.996264)"/>
      <use xlink:href="#CMSS17-6e" transform="translate(214.119643 -89.559461) scale(0.996264)"/>
      <use xlink:href="#CMSS17-74" transform="translate(262.324587 -89.559461) scale(0.996264)"/>
      <use xlink:href="#CMSS17-61" transform="translate(296.156153 -89.559461) scale(0.996264)"/>
      <use xlink:href="#CMSS17-74" transform="translate(341.078074 -89.559461) scale(0.996264)"/>
      <use xlink:href="#CMSS17-69" transform="translate(374.909641 -89.559461) scale(0.996264)"/>
      <use xlink:href="#CMSS17-6f" transform="translate(397.090364 -89.559461) scale(0.996264)"/>
      <use xlink:href="#CMSS17-6e" transform="translate(443.933987 -89.559461) scale(0.996264)"/>
      <use xlink:href="#CMSS17-73" transform="translate(492.13893 -89.559461) scale(0.996264)"/>
      <use xlink:href="#CMSS17-72" transform="translate(528.052472 -89.559461) scale(0.996264)"/>
      <use xlink:href="#CMSS17-65" transform="translate(559.962245 -89.559461) scale(0.996264)"/>
      <use xlink:href="#CMSS17-69" transform="translate(601.601067 -89.559461) scale(0.996264)"/>
      <use xlink:href="#CMSS17-68" transform="translate(623.78179 -89.559461) scale(0.996264)"/>
      <use xlink:href="#CMSS17-65" transform="translate(671.986733 -89.559461) scale(0.996264)"/>
      <use xlink:href="#CMSS17-6e" transform="translate(713.625555 -89.559461) scale(0.996264)"/>
      <use xlink:href="#CMSS17-66" transform="translate(761.830498 -89.559461) scale(0.996264)"/>
      <use xlink:href="#CMSS17-6f" transform="translate(790.457157 -89.559461) scale(0.996264)"/>
      <use xlink:href="#CMSS17-6c" transform="translate(837.300781 -89.559461) scale(0.996264)"/>
      <use xlink:href="#CMSS17-67" transform="translate(859.481504 -89.559461) scale(0.996264)"/>
      <use xlink:href="#CMSS17-65" transform="translate(906.325127 -89.559461) scale(0.996264)"/>
      <use xlink:href="#CMMI12-41" transform="translate(979.193062 -89.559461) scale(0.996264)"/>
      <use xlink:href="#CMMI12-42" transform="translate(1052.320947 -89.559461) scale(0.996264)"/>
     </g>
    </g>
    <g id="patch_18">
     <path d="M 330.620074 67.84832 
L 352.620074 67.84832 
L 352.620074 60.14832 
L 330.620074 60.14832 
z
" style="fill: #5875a4; stroke: #ffffff; stroke-linejoin: miter"/>
    </g>
    <g id="text_16">
     <!-- $A &gt; B$ -->
     <g style="fill: #262626" transform="translate(361.420074 67.84832) scale(0.11 -0.11)">
      <defs>
       <path id="CMMI12-3e" d="M 4218 1449 
C 4339 1507 4346 1545 4346 1590 
C 4346 1628 4333 1673 4218 1725 
L 755 3322 
C 672 3360 659 3360 646 3360 
C 570 3360 525 3296 525 3245 
C 525 3168 576 3142 659 3104 
L 3949 1590 
L 653 65 
C 525 6 525 -39 525 -77 
C 525 -128 570 -192 646 -192 
C 659 -192 666 -185 755 -147 
L 4218 1449 
z
" transform="scale(0.015625)"/>
      </defs>
      <use xlink:href="#CMMI12-41" transform="scale(0.996264)"/>
      <use xlink:href="#CMMI12-3e" transform="translate(100.801894 0) scale(0.996264)"/>
      <use xlink:href="#CMMI12-42" transform="translate(204.347999 0) scale(0.996264)"/>
     </g>
    </g>
    <g id="patch_19">
     <path d="M 330.620074 83.179214 
L 352.620074 83.179214 
L 352.620074 75.479214 
L 330.620074 75.479214 
z
" style="fill: #cc8963; stroke: #ffffff; stroke-linejoin: miter"/>
    </g>
    <g id="text_17">
     <!-- $A &lt; B$ -->
     <g style="fill: #262626" transform="translate(361.420074 83.179214) scale(0.11 -0.11)">
      <defs>
       <path id="CMMI12-3c" d="M 4218 3104 
C 4333 3155 4346 3200 4346 3238 
C 4346 3309 4294 3360 4224 3360 
C 4211 3360 4205 3353 4115 3315 
L 653 1719 
C 538 1667 525 1622 525 1584 
C 525 1539 531 1501 653 1442 
L 4115 -154 
C 4198 -192 4211 -192 4224 -192 
C 4294 -192 4346 -141 4346 -70 
C 4346 -32 4333 13 4218 64 
L 922 1581 
L 4218 3104 
z
" transform="scale(0.015625)"/>
      </defs>
      <use xlink:href="#CMMI12-41" transform="scale(0.996264)"/>
      <use xlink:href="#CMMI12-3c" transform="translate(100.801894 0) scale(0.996264)"/>
      <use xlink:href="#CMMI12-42" transform="translate(204.347999 0) scale(0.996264)"/>
     </g>
    </g>
   </g>
  </g>
 </g>
 <defs>
  <clipPath id="p1ebc25b5fd">
   <rect x="50.809319" y="22.166376" width="390.6" height="239.851669"/>
  </clipPath>
 </defs>
</svg>
